<svg xmlns="http://www.w3.org/2000/svg" viewBox="0 0 1200 630" role="img" aria-label="a car on a highway passing a blank welcome sign at a state line"><title>a car on a highway passing a blank welcome sign at a state line</title><style>
.bg{fill:#fbfaf9}.soft{fill:#eaf1f5}.soft2{fill:#d9e6ee}.ground{fill:#f3efe9}.road{fill:#e2ddd6}
.paper{fill:#ffffff;stroke:#1e1c1a;stroke-width:3}.ink{fill:#1e1c1a}.inks{stroke:#1e1c1a;fill:none;stroke-width:3;stroke-linecap:round;stroke-linejoin:round}
.acc{fill:#1d4e6f}.accs{stroke:#1d4e6f;fill:none;stroke-width:4;stroke-linecap:round}.warn{fill:#8a4b1f}.warns{stroke:#8a4b1f;fill:none;stroke-width:5;stroke-linecap:round}
.wsoft{fill:#fbf1e8}.muted{fill:#b9b2a9}.mutes{stroke:#c9c2b9;fill:none;stroke-width:6;stroke-linecap:round}.hub{fill:#e2ddd6}.white{fill:#fbfaf9}
.water{fill:#1d4e6f;opacity:.18}.wline{stroke:#1d4e6f;fill:none;stroke-width:4;opacity:.55}
@media (prefers-color-scheme:dark){
.bg{fill:#161514}.soft{fill:#1f2c34}.soft2{fill:#263843}.ground{fill:#1e1d1b}.road{fill:#322e2a}
.paper{fill:#1e1d1b;stroke:#eae7e2}.ink{fill:#eae7e2}.inks{stroke:#eae7e2}.acc{fill:#7db6d6}.accs{stroke:#7db6d6}
.warn{fill:#d9a06a}.warns{stroke:#d9a06a}.wsoft{fill:#2c2419}.muted{fill:#5a544d}.mutes{stroke:#4a453f}.hub{fill:#322e2a}.white{fill:#161514}
.water{fill:#7db6d6;opacity:.22}.wline{stroke:#7db6d6}}
</style><rect class="bg" width="1200" height="630"/><rect class="soft" width="1200" height="470"/><path class="soft2" d="M0,470 L0,400 Q150,330 320,390 Q470,440 620,370 Q800,300 980,380 Q1100,420 1200,390 L1200,470 Z"/><rect class="ground" y="470" width="1200" height="160"/><rect class="road" y="490" width="1200" height="80"/><rect class="white" x="20" y="527" width="60" height="6" rx="3"/><rect class="white" x="140" y="527" width="60" height="6" rx="3"/><rect class="white" x="260" y="527" width="60" height="6" rx="3"/><rect class="white" x="380" y="527" width="60" height="6" rx="3"/><rect class="white" x="500" y="527" width="60" height="6" rx="3"/><rect class="white" x="620" y="527" width="60" height="6" rx="3"/><rect class="white" x="740" y="527" width="60" height="6" rx="3"/><rect class="white" x="860" y="527" width="60" height="6" rx="3"/><rect class="white" x="980" y="527" width="60" height="6" rx="3"/><rect class="white" x="1100" y="527" width="60" height="6" rx="3"/><rect class="inks" x="866.0" y="360" width="8" height="90" style="fill:#1e1c1a"/><rect class="paper" x="760" y="250" width="220" height="110" rx="8"/><path class="mutes" d="M784,284 L956,284 M784,308 L920,308"/><path class="mutes" d="M0,475 L1200,475" style="stroke-dasharray:4 20;stroke-width:4"/><g transform="translate(200,433) scale(1)"><g>
<path class="acc" d="M0,80 L10,60 Q20,52 40,50 L95,48 L135,18 Q145,10 160,10 L250,10 Q265,10 275,20 L310,48 L345,54 Q360,58 360,72 L360,92 Q360,100 352,100 L8,100 Q0,100 0,92 Z"/>
<path class="soft" d="M147,20 L200,20 L200,44 L117,44 Z"/><path class="soft" d="M208,20 L260,20 Q267,20 271,26 L290,44 L208,44 Z"/>
<path class="inks" d="M204,50 L204,94" style="opacity:.35"/><rect class="soft" x="340" y="62" width="14" height="8" rx="3"/>
<circle class="ink" cx="80" cy="100" r="27"/><circle class="hub" cx="80" cy="100" r="11"/>
<circle class="ink" cx="282" cy="100" r="27"/><circle class="hub" cx="282" cy="100" r="11"/></g></g></svg>