<svg xmlns="http://www.w3.org/2000/svg" viewBox="0 0 1200 630" role="img" aria-label="a used car on a dealer lot beside a ribbon badge and a checklist"><title>a used car on a dealer lot beside a ribbon badge and a checklist</title><style>
.bg{fill:#fbfaf9}.soft{fill:#eaf1f5}.soft2{fill:#d9e6ee}.ground{fill:#f3efe9}.road{fill:#e2ddd6}
.paper{fill:#ffffff;stroke:#1e1c1a;stroke-width:3}.ink{fill:#1e1c1a}.inks{stroke:#1e1c1a;fill:none;stroke-width:3;stroke-linecap:round;stroke-linejoin:round}
.acc{fill:#1d4e6f}.accs{stroke:#1d4e6f;fill:none;stroke-width:4;stroke-linecap:round}.warn{fill:#8a4b1f}.warns{stroke:#8a4b1f;fill:none;stroke-width:5;stroke-linecap:round}
.wsoft{fill:#fbf1e8}.muted{fill:#b9b2a9}.mutes{stroke:#c9c2b9;fill:none;stroke-width:6;stroke-linecap:round}.hub{fill:#e2ddd6}.white{fill:#fbfaf9}
.water{fill:#1d4e6f;opacity:.18}.wline{stroke:#1d4e6f;fill:none;stroke-width:4;opacity:.55}
@media (prefers-color-scheme:dark){
.bg{fill:#161514}.soft{fill:#1f2c34}.soft2{fill:#263843}.ground{fill:#1e1d1b}.road{fill:#322e2a}
.paper{fill:#1e1d1b;stroke:#eae7e2}.ink{fill:#eae7e2}.inks{stroke:#eae7e2}.acc{fill:#7db6d6}.accs{stroke:#7db6d6}
.warn{fill:#d9a06a}.warns{stroke:#d9a06a}.wsoft{fill:#2c2419}.muted{fill:#5a544d}.mutes{stroke:#4a453f}.hub{fill:#322e2a}.white{fill:#161514}
.water{fill:#7db6d6;opacity:.22}.wline{stroke:#7db6d6}}
</style><rect class="bg" width="1200" height="630"/><rect class="soft" width="1200" height="470"/><rect class="soft2" x="700" y="220" width="440" height="250"/><rect class="acc" x="700" y="220" width="440" height="26"/><rect class="soft" x="720" y="266" width="400" height="190" rx="4"/><path class="mutes" d="M820.0,266 L820.0,456" style="stroke-width:3"/><path class="mutes" d="M920.0,266 L920.0,456" style="stroke-width:3"/><path class="mutes" d="M1020.0,266 L1020.0,456" style="stroke-width:3"/><rect class="ground" y="470" width="1200" height="160"/><g transform="translate(120,350) scale(1.05)"><g>
<path class="acc" d="M0,80 L10,60 Q20,52 40,50 L95,48 L135,18 Q145,10 160,10 L250,10 Q265,10 275,20 L310,48 L345,54 Q360,58 360,72 L360,92 Q360,100 352,100 L8,100 Q0,100 0,92 Z"/>
<path class="soft" d="M147,20 L200,20 L200,44 L117,44 Z"/><path class="soft" d="M208,20 L260,20 Q267,20 271,26 L290,44 L208,44 Z"/>
<path class="inks" d="M204,50 L204,94" style="opacity:.35"/><rect class="soft" x="340" y="62" width="14" height="8" rx="3"/>
<circle class="ink" cx="80" cy="100" r="27"/><circle class="hub" cx="80" cy="100" r="11"/>
<circle class="ink" cx="282" cy="100" r="27"/><circle class="hub" cx="282" cy="100" r="11"/></g></g><g transform="translate(600,190)"><circle class="warn" r="58"/><circle class="wsoft" r="40"/><path class="warn" d="M-30,48 L-44,120 L-10,100 L0,130 L14,52Z M30,48 L44,120 L10,100 L0,130 L-14,52Z"/></g><g><rect class="acc" x="940" y="250" width="180" height="222" rx="12"/><rect class="paper" x="950" y="268" width="160" height="198" rx="6"/><rect class="ink" x="1000" y="242" width="60" height="24" rx="6"/><rect x="964" y="310" width="22" height="22" rx="4" class="inks" style="stroke-width:2.5"/><path class="warns" d="M968,321 L974,327 L984,314" style="stroke-width:3.5"/><path class="mutes" d="M1000,321 L1090,321" style="stroke-width:5"/><rect x="964" y="348" width="22" height="22" rx="4" class="inks" style="stroke-width:2.5"/><path class="warns" d="M968,359 L974,365 L984,352" style="stroke-width:3.5"/><path class="mutes" d="M1000,359 L1060,359" style="stroke-width:5"/><rect x="964" y="386" width="22" height="22" rx="4" class="inks" style="stroke-width:2.5"/><path class="warns" d="M968,397 L974,403 L984,390" style="stroke-width:3.5"/><path class="mutes" d="M1000,397 L1090,397" style="stroke-width:5"/><rect x="964" y="424" width="22" height="22" rx="4" class="inks" style="stroke-width:2.5"/><path class="mutes" d="M1000,435 L1060,435" style="stroke-width:5"/></g></svg>