<svg xmlns="http://www.w3.org/2000/svg" viewBox="0 0 1200 630" role="img" aria-label="two identical blank documents, one faded, with car keys and a question mark"><title>two identical blank documents, one faded, with car keys and a question mark</title><style>
.bg{fill:#fbfaf9}.soft{fill:#eaf1f5}.soft2{fill:#d9e6ee}.ground{fill:#f3efe9}.road{fill:#e2ddd6}
.paper{fill:#ffffff;stroke:#1e1c1a;stroke-width:3}.ink{fill:#1e1c1a}.inks{stroke:#1e1c1a;fill:none;stroke-width:3;stroke-linecap:round;stroke-linejoin:round}
.acc{fill:#1d4e6f}.accs{stroke:#1d4e6f;fill:none;stroke-width:4;stroke-linecap:round}.warn{fill:#8a4b1f}.warns{stroke:#8a4b1f;fill:none;stroke-width:5;stroke-linecap:round}
.wsoft{fill:#fbf1e8}.muted{fill:#b9b2a9}.mutes{stroke:#c9c2b9;fill:none;stroke-width:6;stroke-linecap:round}.hub{fill:#e2ddd6}.white{fill:#fbfaf9}
.water{fill:#1d4e6f;opacity:.18}.wline{stroke:#1d4e6f;fill:none;stroke-width:4;opacity:.55}
@media (prefers-color-scheme:dark){
.bg{fill:#161514}.soft{fill:#1f2c34}.soft2{fill:#263843}.ground{fill:#1e1d1b}.road{fill:#322e2a}
.paper{fill:#1e1d1b;stroke:#eae7e2}.ink{fill:#eae7e2}.inks{stroke:#eae7e2}.acc{fill:#7db6d6}.accs{stroke:#7db6d6}
.warn{fill:#d9a06a}.warns{stroke:#d9a06a}.wsoft{fill:#2c2419}.muted{fill:#5a544d}.mutes{stroke:#4a453f}.hub{fill:#322e2a}.white{fill:#161514}
.water{fill:#7db6d6;opacity:.22}.wline{stroke:#7db6d6}}
</style><rect class="bg" width="1200" height="630"/><circle class="soft" cx="600" cy="300" r="260"/><rect class="paper" x="330" y="170" width="220" height="280" rx="10"/><rect class="acc" x="358" y="194" width="80" height="12" rx="6"/><path class="mutes" d="M358,230 L522,230"/><path class="mutes" d="M358,264 L482,264"/><path class="mutes" d="M358,298 L522,298"/><path class="mutes" d="M358,332 L482,332"/><path class="mutes" d="M358,366 L522,366"/><g style="opacity:.45"><rect class="paper" x="650" y="170" width="220" height="280" rx="10"/><rect class="acc" x="678" y="194" width="80" height="12" rx="6"/><path class="mutes" d="M678,230 L842,230"/><path class="mutes" d="M678,264 L802,264"/><path class="mutes" d="M678,298 L842,298"/><path class="mutes" d="M678,332 L802,332"/><path class="mutes" d="M678,366 L842,366"/></g><text></text><path class="warns" d="M585,250 Q585,215 610,215 Q635,215 635,240 Q635,262 610,272 L610,300" style="stroke-width:10"/><circle class="warn" cx="610" cy="330" r="8"/><g transform="translate(560,500) rotate(-10) scale(1)"><circle class="warn" cx="0" cy="0" r="30"/><circle class="white" cx="-8" cy="0" r="10"/><rect class="warn" x="22" y="-8" width="90" height="16" rx="4"/><rect class="warn" x="88" y="8" width="10" height="16"/><rect class="warn" x="70" y="8" width="10" height="12"/></g></svg>