<svg xmlns="http://www.w3.org/2000/svg" viewBox="0 0 1200 630" role="img" aria-label="a driver's view through a windshield of an open road with a checklist on the passenger seat"><title>a driver's view through a windshield of an open road with a checklist on the passenger seat</title><style>
.bg{fill:#fbfaf9}.soft{fill:#eaf1f5}.soft2{fill:#d9e6ee}.ground{fill:#f3efe9}.road{fill:#e2ddd6}
.paper{fill:#ffffff;stroke:#1e1c1a;stroke-width:3}.ink{fill:#1e1c1a}.inks{stroke:#1e1c1a;fill:none;stroke-width:3;stroke-linecap:round;stroke-linejoin:round}
.acc{fill:#1d4e6f}.accs{stroke:#1d4e6f;fill:none;stroke-width:4;stroke-linecap:round}.warn{fill:#8a4b1f}.warns{stroke:#8a4b1f;fill:none;stroke-width:5;stroke-linecap:round}
.wsoft{fill:#fbf1e8}.muted{fill:#b9b2a9}.mutes{stroke:#c9c2b9;fill:none;stroke-width:6;stroke-linecap:round}.hub{fill:#e2ddd6}.white{fill:#fbfaf9}
.water{fill:#1d4e6f;opacity:.18}.wline{stroke:#1d4e6f;fill:none;stroke-width:4;opacity:.55}
@media (prefers-color-scheme:dark){
.bg{fill:#161514}.soft{fill:#1f2c34}.soft2{fill:#263843}.ground{fill:#1e1d1b}.road{fill:#322e2a}
.paper{fill:#1e1d1b;stroke:#eae7e2}.ink{fill:#eae7e2}.inks{stroke:#eae7e2}.acc{fill:#7db6d6}.accs{stroke:#7db6d6}
.warn{fill:#d9a06a}.warns{stroke:#d9a06a}.wsoft{fill:#2c2419}.muted{fill:#5a544d}.mutes{stroke:#4a453f}.hub{fill:#322e2a}.white{fill:#161514}
.water{fill:#7db6d6;opacity:.22}.wline{stroke:#7db6d6}}
</style><rect class="bg" width="1200" height="630"/><rect class="soft" width="1200" height="360"/><path class="soft2" d="M0,360 L0,290 Q150,220 320,280 Q470,330 620,260 Q800,190 980,270 Q1100,310 1200,280 L1200,360 Z"/><rect class="ground" y="360" width="1200" height="270"/><path class="road" d="M520,360 L680,360 L1000,630 L200,630Z"/><path class="white" d="M596,380 L604,380 L620,440 L580,440Z M570,480 L630,480 L650,560 L550,560Z"/><path d="M0,0 L1200,0 L1200,80 Q600,40 0,80Z M0,520 Q600,470 1200,520 L1200,630 L0,630Z" style="fill:#2a2724"/><circle cx="400" cy="640" r="150" class="inks" style="stroke-width:26;stroke:#3a3632"/><g><rect class="acc" x="900" y="330" width="180" height="146" rx="12"/><rect class="paper" x="910" y="348" width="160" height="122" rx="6"/><rect class="ink" x="960" y="322" width="60" height="24" rx="6"/><rect x="924" y="390" width="22" height="22" rx="4" class="inks" style="stroke-width:2.5"/><path class="warns" d="M928,401 L934,407 L944,394" style="stroke-width:3.5"/><path class="mutes" d="M960,401 L1050,401" style="stroke-width:5"/><rect x="924" y="428" width="22" height="22" rx="4" class="inks" style="stroke-width:2.5"/><path class="warns" d="M928,439 L934,445 L944,432" style="stroke-width:3.5"/><path class="mutes" d="M960,439 L1020,439" style="stroke-width:5"/></g></svg>