<svg xmlns="http://www.w3.org/2000/svg" viewBox="0 0 1200 630" role="img" aria-label="a row of 17 character boxes with the ninth highlighted next to a calculator"><title>a row of 17 character boxes with the ninth highlighted next to a calculator</title><style>
.bg{fill:#fbfaf9}.soft{fill:#eaf1f5}.soft2{fill:#d9e6ee}.ground{fill:#f3efe9}.road{fill:#e2ddd6}
.paper{fill:#ffffff;stroke:#1e1c1a;stroke-width:3}.ink{fill:#1e1c1a}.inks{stroke:#1e1c1a;fill:none;stroke-width:3;stroke-linecap:round;stroke-linejoin:round}
.acc{fill:#1d4e6f}.accs{stroke:#1d4e6f;fill:none;stroke-width:4;stroke-linecap:round}.warn{fill:#8a4b1f}.warns{stroke:#8a4b1f;fill:none;stroke-width:5;stroke-linecap:round}
.wsoft{fill:#fbf1e8}.muted{fill:#b9b2a9}.mutes{stroke:#c9c2b9;fill:none;stroke-width:6;stroke-linecap:round}.hub{fill:#e2ddd6}.white{fill:#fbfaf9}
.water{fill:#1d4e6f;opacity:.18}.wline{stroke:#1d4e6f;fill:none;stroke-width:4;opacity:.55}
@media (prefers-color-scheme:dark){
.bg{fill:#161514}.soft{fill:#1f2c34}.soft2{fill:#263843}.ground{fill:#1e1d1b}.road{fill:#322e2a}
.paper{fill:#1e1d1b;stroke:#eae7e2}.ink{fill:#eae7e2}.inks{stroke:#eae7e2}.acc{fill:#7db6d6}.accs{stroke:#7db6d6}
.warn{fill:#d9a06a}.warns{stroke:#d9a06a}.wsoft{fill:#2c2419}.muted{fill:#5a544d}.mutes{stroke:#4a453f}.hub{fill:#322e2a}.white{fill:#161514}
.water{fill:#7db6d6;opacity:.22}.wline{stroke:#7db6d6}}
</style><rect class="bg" width="1200" height="630"/><rect class="soft" x="40" y="200" width="1120" height="230" rx="24"/><rect class="acc" x="80" y="270" width="48" height="64" rx="7" style="opacity:0.16"/><rect x="80" y="270" width="48" height="64" rx="7" class="inks" style="stroke-width:2.5"/><rect class="acc" x="136" y="270" width="48" height="64" rx="7" style="opacity:0.16"/><rect x="136" y="270" width="48" height="64" rx="7" class="inks" style="stroke-width:2.5"/><rect class="acc" x="192" y="270" width="48" height="64" rx="7" style="opacity:0.16"/><rect x="192" y="270" width="48" height="64" rx="7" class="inks" style="stroke-width:2.5"/><rect class="acc" x="248" y="270" width="48" height="64" rx="7" style="opacity:0.16"/><rect x="248" y="270" width="48" height="64" rx="7" class="inks" style="stroke-width:2.5"/><rect class="acc" x="304" y="270" width="48" height="64" rx="7" style="opacity:0.16"/><rect x="304" y="270" width="48" height="64" rx="7" class="inks" style="stroke-width:2.5"/><rect class="acc" x="360" y="270" width="48" height="64" rx="7" style="opacity:0.16"/><rect x="360" y="270" width="48" height="64" rx="7" class="inks" style="stroke-width:2.5"/><rect class="acc" x="416" y="270" width="48" height="64" rx="7" style="opacity:0.16"/><rect x="416" y="270" width="48" height="64" rx="7" class="inks" style="stroke-width:2.5"/><rect class="acc" x="472" y="270" width="48" height="64" rx="7" style="opacity:0.16"/><rect x="472" y="270" width="48" height="64" rx="7" class="inks" style="stroke-width:2.5"/><rect class="warn" x="528" y="270" width="48" height="64" rx="7" style="opacity:0.5"/><rect x="528" y="270" width="48" height="64" rx="7" class="inks" style="stroke-width:4"/><rect class="acc" x="584" y="270" width="48" height="64" rx="7" style="opacity:0.16"/><rect x="584" y="270" width="48" height="64" rx="7" class="inks" style="stroke-width:2.5"/><rect class="acc" x="640" y="270" width="48" height="64" rx="7" style="opacity:0.16"/><rect x="640" y="270" width="48" height="64" rx="7" class="inks" style="stroke-width:2.5"/><rect class="acc" x="696" y="270" width="48" height="64" rx="7" style="opacity:0.16"/><rect x="696" y="270" width="48" height="64" rx="7" class="inks" style="stroke-width:2.5"/><rect class="acc" x="752" y="270" width="48" height="64" rx="7" style="opacity:0.16"/><rect x="752" y="270" width="48" height="64" rx="7" class="inks" style="stroke-width:2.5"/><rect class="acc" x="808" y="270" width="48" height="64" rx="7" style="opacity:0.16"/><rect x="808" y="270" width="48" height="64" rx="7" class="inks" style="stroke-width:2.5"/><rect class="acc" x="864" y="270" width="48" height="64" rx="7" style="opacity:0.16"/><rect x="864" y="270" width="48" height="64" rx="7" class="inks" style="stroke-width:2.5"/><rect class="acc" x="920" y="270" width="48" height="64" rx="7" style="opacity:0.16"/><rect x="920" y="270" width="48" height="64" rx="7" class="inks" style="stroke-width:2.5"/><rect class="acc" x="976" y="270" width="48" height="64" rx="7" style="opacity:0.16"/><rect x="976" y="270" width="48" height="64" rx="7" class="inks" style="stroke-width:2.5"/><path class="warns" d="M528,250 L528,220" style="stroke-width:6"/><g transform="translate(980,50)"><rect class="ink" width="120" height="150" rx="14"/><rect class="soft" x="14" y="14" width="92" height="34" rx="4"/><rect class="hub" x="14" y="60" width="24" height="20" rx="4"/><rect class="hub" x="46" y="60" width="24" height="20" rx="4"/><rect class="hub" x="78" y="60" width="24" height="20" rx="4"/><rect class="hub" x="14" y="88" width="24" height="20" rx="4"/><rect class="hub" x="46" y="88" width="24" height="20" rx="4"/><rect class="hub" x="78" y="88" width="24" height="20" rx="4"/><rect class="hub" x="14" y="116" width="24" height="20" rx="4"/><rect class="hub" x="46" y="116" width="24" height="20" rx="4"/><rect class="hub" x="78" y="116" width="24" height="20" rx="4"/></g></svg>